<svg width="120" height="120" viewBox="0 0 120 120" fill="none" xmlns="http://www.w3.org/2000/svg">
<path d="M17.0145 46.2322C22.2723 30.5473 36.9985 18.6142 53.439 16.7435C64.9082 15.2844 76.8882 18.5204 86.0177 25.6386C95.9498 33.2205 102.411 45.1639 103.193 57.6546C104.162 70.3067 99.3317 83.2507 90.2959 92.1718C81.1559 101.426 67.7795 106.247 54.8355 104.965C41.756 103.86 29.4374 96.5073 22.1577 85.6112C14.3673 74.2618 12.4445 59.2022 17.0145 46.2322ZM35.7061 114.386C42.298 112.812 49.1139 112.771 55.836 112.265C63.5794 111.822 71.2135 113.406 78.9204 113.813C84.2825 110.327 90.5408 108.211 95.2046 103.683C106.08 94.8138 111.65 80.8432 113.068 67.1593C113.881 51.292 107.07 35.8259 97.19 23.6949C92.6929 18.4006 87.5185 13.2834 80.9371 10.7144C66.6435 4.35189 49.9737 4.77397 35.3778 9.91717C29.3436 12.9291 23.5386 16.7279 19.2135 21.9753C10.0371 33.4654 4.71148 48.3478 6.26955 63.1313C7.80678 76.612 12.6217 89.9728 21.423 100.442C25.4719 105.788 30.9121 109.769 35.7061 114.386Z" fill="#D7A301"/>
<path fill-rule="evenodd" clip-rule="evenodd" d="M21.7431 47.8576L21.7303 47.8938C17.6852 59.3742 19.403 72.7628 26.28 82.7816L26.2978 82.8075L26.3152 82.8336C32.7604 92.4806 43.7121 99.0073 55.2563 99.9824L55.2923 99.9854L55.3283 99.989C66.7731 101.122 78.6604 96.8376 86.7384 88.6583L86.7606 88.6359L86.783 88.6137C94.7716 80.7265 99.0646 69.2241 98.2076 58.0364L98.2049 58.0016L98.2028 57.9668C97.5129 46.9424 91.7796 36.3274 82.9838 29.6128L82.9635 29.5973L82.9434 29.5816C74.8758 23.2915 64.2326 20.4106 54.07 21.7035L54.0371 21.7076L54.0043 21.7114C39.4965 23.3622 26.3966 33.9754 21.7552 47.8213L21.7431 47.8576ZM34.2074 119.884L32.2378 117.987C30.7778 116.581 29.3464 115.318 27.829 113.979C26.901 113.16 25.9408 112.313 24.9222 111.387C22.4073 109.102 19.799 106.559 17.515 103.563C8.0018 92.2007 2.92013 77.89 1.30175 63.6977L1.29933 63.6765L1.2971 63.6553C-0.421104 47.3525 5.4528 31.1932 15.3066 18.855L15.3307 18.8248L15.3552 18.7951C20.3067 12.7877 26.8026 8.60911 33.1449 5.44343L33.423 5.30462L33.7161 5.20132C49.2431 -0.269967 67.2162 -0.828191 82.8661 6.10017C90.6029 9.15461 96.4129 15.0567 101.001 20.4579L101.034 20.4973L101.067 20.5374C111.482 33.3253 118.955 49.9692 118.061 67.4151L118.055 67.545L118.041 67.6744C116.542 82.1439 110.631 97.4595 98.5285 107.423C95.7325 110.094 92.5782 111.975 89.7111 113.532C88.7925 114.031 87.9271 114.486 87.1001 114.921C85.1311 115.956 83.3797 116.877 81.6458 118.005L80.2818 118.892L78.6571 118.806C75.6706 118.648 72.638 118.317 69.7755 118.004C68.7888 117.896 67.8222 117.79 66.8848 117.695C63.1242 117.311 59.6136 117.061 56.1643 117.255C54.4229 117.385 52.7463 117.484 51.1188 117.581C46.0489 117.881 41.4563 118.154 36.8672 119.249L34.2074 119.884ZM95.2046 103.683C106.08 94.8137 111.65 80.8432 113.068 67.1593C113.881 51.292 107.07 35.8259 97.19 23.6948C92.693 18.4005 87.5185 13.2834 80.9371 10.7144C66.6435 4.35183 49.9737 4.77392 35.3779 9.91711C29.3436 12.929 23.5386 16.7278 19.2135 21.9752C10.0371 33.4653 4.71149 48.3478 6.26956 63.1312C7.80678 76.6119 12.6217 89.9727 21.423 100.442C24.1866 104.091 27.5984 107.104 31.0106 110.117C32.5974 111.519 34.1843 112.92 35.7061 114.386C40.7624 113.179 45.9504 112.873 51.1268 112.568C52.6989 112.475 54.27 112.383 55.836 112.265C60.7323 111.985 65.5849 112.515 70.4399 113.046C73.2629 113.355 76.0867 113.663 78.9204 113.813C80.8596 112.552 82.9159 111.471 84.9716 110.389C88.6004 108.481 92.2274 106.573 95.2046 103.683ZM86.0177 25.6385C76.8882 18.5204 64.9082 15.2844 53.439 16.7434C36.9985 18.6142 22.2723 30.5472 17.0145 46.2321C12.4445 59.2022 14.3674 74.2618 22.1577 85.6112C29.4374 96.5073 41.756 103.86 54.8355 104.965C67.7795 106.247 81.1559 101.426 90.2959 92.1718C99.3317 83.2506 104.162 70.3067 103.193 57.6545C102.411 45.1639 95.9498 33.2204 86.0177 25.6385Z" fill="black"/>
<path d="M27.598 36.0136C33.4968 28.5099 42.1626 23.252 51.5579 21.5064C61.4899 19.6096 72.1098 21.6835 80.5828 27.2176C89.8166 33.1268 96.424 42.9911 98.2843 53.8142C100.134 63.9964 97.7841 74.8768 91.8749 83.381C85.7729 92.3126 75.9346 98.5918 65.2366 100.244C54.2102 102.073 42.5065 98.9305 33.8459 91.8644C25.4928 85.158 20.0161 74.981 19.1302 64.2934C18.1922 54.2363 21.3084 43.9082 27.598 36.0136ZM54.8356 104.965C67.7795 106.252 81.156 101.427 90.296 92.1719C99.3317 83.2508 104.167 70.3068 103.193 57.6546C102.411 45.164 95.9498 33.2206 86.0178 25.6386C76.8882 18.5205 64.9083 15.2845 53.439 16.7436C36.9985 18.6143 22.2724 30.5473 17.0146 46.2323C12.4446 59.2023 14.3726 74.2619 22.1578 85.6113C29.4374 96.5074 41.7561 103.86 54.8356 104.965Z" fill="#1D1D1D"/>
<path d="M45.8154 44.3721C50.9273 45.3987 53.1159 50.6669 56.5916 53.9654C57.8943 52.5481 59.1866 51.1098 60.4685 49.6873C57.2586 46.9098 54.0017 44.0907 51.8236 40.3753C56.7896 37.6604 60.3851 43.4081 63.8139 46.0969C67.2688 42.7932 69.9576 38.1971 74.5954 36.4671C75.0122 36.811 75.8408 37.4989 76.2576 37.8376C73.7616 42.048 69.8847 45.1746 66.9561 49.0515C68.8164 50.7815 70.6559 52.5272 72.5162 54.2572C75.8668 50.792 79.1289 46.9776 83.4956 44.7577C84.7723 43.8354 86.1011 44.5024 87.2371 45.2892C87.2058 46.9046 85.877 47.8947 84.8296 48.9212C81.75 51.7091 78.6912 54.5126 75.8616 57.5506C78.3524 60.5052 80.9788 63.3503 83.282 66.4665C82.3284 67.0605 81.3539 67.6077 80.3534 68.1079C77.0132 66.7583 74.9914 63.5379 72.4797 61.1096C70.5934 63.4493 68.5611 65.6796 66.5392 67.9203C68.8998 71.1563 71.6772 74.1213 73.5636 77.67C74.1785 79.7387 71.2604 80.7601 70.0045 79.2645C67.4928 76.904 65.768 73.8764 63.6524 71.1928C59.9422 75.0385 56.1851 78.8424 52.1987 82.4015C50.5104 84.0169 47.4412 85.5177 45.6747 83.1675C49.3119 76.706 56.2893 73.1313 60.5362 67.1126C59.1397 65.2106 57.7536 63.3086 56.3727 61.4067C53.8506 64.132 51.636 67.1699 48.7283 69.5044C47.3838 71.0417 43.9186 69.5149 44.9399 67.4565C46.9513 63.5952 50.3697 60.698 53.3035 57.5401C50.6615 53.8977 47.4985 50.6669 44.6742 47.1652C44.9608 46.4669 45.5235 45.0704 45.8154 44.3721ZM33.8458 91.8594C42.5064 98.9306 54.2102 102.078 65.2365 100.244C75.9346 98.5919 85.7728 92.3127 91.8696 83.3812C97.784 74.8769 100.134 64.0017 98.2843 53.8143C96.424 42.9912 89.8165 33.1269 80.5827 27.2177C72.1097 21.6837 61.4898 19.6097 51.5578 21.5065C42.1625 23.2522 33.4967 28.51 27.5979 36.019C21.3083 43.9083 18.1922 54.2364 19.1249 64.2935C20.016 74.9811 25.4927 85.1581 33.8458 91.8594Z" fill="#F3EDE1"/>
<path d="M63.6055 52.8969C65.4554 54.455 67.3626 55.9818 68.9572 57.8264C67.3261 60.0046 65.3408 61.8857 63.4909 63.8867C62.1986 61.8753 60.8958 59.8743 59.614 57.8733C60.9323 56.211 62.2715 54.5487 63.6055 52.8969ZM44.94 67.4562C43.9186 69.5146 47.3839 71.0414 48.7283 69.5041C51.636 67.1696 53.8507 64.1317 56.3727 61.4063C57.7536 63.3083 59.1398 65.2103 60.5363 67.1175C56.2894 73.131 49.3119 76.7057 45.6747 83.1672C47.4412 85.5174 50.5104 84.0166 52.1988 82.4012C56.1852 78.8421 59.9422 75.0382 63.6524 71.1925C65.7681 73.8761 67.4929 76.9037 70.0046 79.2642C71.2604 80.7598 74.1785 79.7384 73.5688 77.6697C71.6773 74.121 68.8998 71.156 66.5393 67.92C68.5611 65.6793 70.5934 63.4542 72.4798 61.1093C74.9914 63.5376 77.0133 66.758 80.3535 68.1076C81.354 67.6074 82.3284 67.0602 83.282 66.4662C80.9788 63.35 78.3525 60.5049 75.8617 57.5502C78.6912 54.5123 81.75 51.7088 84.8297 48.9209C85.8771 47.8944 87.2059 46.9043 87.2371 45.2889C86.1011 44.5021 84.7724 43.8351 83.4957 44.7574C79.1289 46.9773 75.8669 50.7917 72.5162 54.2569C70.6559 52.5269 68.8165 50.7812 66.9562 49.0564C69.8847 45.1743 73.7616 42.0477 76.2577 37.8373C75.8408 37.4986 75.0123 36.8107 74.5954 36.4668C69.9577 38.1968 67.2688 42.7929 63.814 46.0966C60.3852 43.4078 56.7896 37.6601 51.8236 40.375C54.0018 44.0904 57.2586 46.9095 60.4685 49.6869C59.1867 51.1095 57.8943 52.5477 56.5916 53.9651C53.1159 50.6666 50.9273 45.4036 45.8154 44.3718C45.5236 45.0701 44.9608 46.4666 44.6742 47.1649C47.4985 50.6666 50.6616 53.8974 53.3035 57.5398C50.3697 60.6977 46.9514 63.5949 44.94 67.4562Z" fill="#1D1D1D"/>
<path d="M68.9572 57.8265C67.3627 55.9818 65.4555 54.455 63.6056 52.897C62.2716 54.5488 60.9324 56.2111 59.614 57.8734C60.8959 59.8744 62.1986 61.8754 63.491 63.8868C65.3408 61.8858 67.3262 60.0047 68.9572 57.8265Z" fill="#F3EDE1"/>
</svg>
